<svg version="1.1" xmlns="http://www.w3.org/2000/svg" viewBox="0 0 621 483" width="621" height="483">
  <!-- svg-source:excalidraw -->
  
  <defs>
    <style class="style-fonts">
      @font-face {
        font-family: "Virgil";
        src: url("https://excalidraw.com/Virgil.woff2");
      }
      @font-face {
        font-family: "Cascadia";
        src: url("https://excalidraw.com/Cascadia.woff2");
      }
    </style>
    
  </defs>
  <rect x="0" y="0" width="621" height="483" fill="#ffffff"></rect><g transform="translate(480.23749923706055 395) rotate(0 33.76250076293945 25)"><text x="33.76250076293945" y="0" font-family="Virgil, Segoe UI Emoji" font-size="20px" fill="#1e1e1e" text-anchor="middle" style="white-space: pre;" direction="ltr" dominant-baseline="text-before-edge">Email</text><text x="33.76250076293945" y="25" font-family="Virgil, Segoe UI Emoji" font-size="20px" fill="#1e1e1e" text-anchor="middle" style="white-space: pre;" direction="ltr" dominant-baseline="text-before-edge">Service</text></g><g stroke-linecap="round" transform="translate(451 367) rotate(0 63 53)"><path d="M26.5 0 M26.5 0 C41.12 -0.56, 54.69 2.09, 99.5 0 M26.5 0 C55.07 0.18, 83.69 -0.33, 99.5 0 M99.5 0 C118.16 1.69, 124.88 8.76, 126 26.5 M99.5 0 C118 0.2, 128.01 6.81, 126 26.5 M126 26.5 C127 46.57, 127.16 69.61, 126 79.5 M126 26.5 C126.34 42.03, 126.13 56.54, 126 79.5 M126 79.5 C124.11 95.74, 117.43 107.23, 99.5 106 M126 79.5 C126.56 95.59, 118.59 106.54, 99.5 106 M99.5 106 C71.22 104.74, 45.26 107.51, 26.5 106 M99.5 106 C72.62 106.2, 47.98 107.1, 26.5 106 M26.5 106 C9.62 105.25, 0.26 95.56, 0 79.5 M26.5 106 C11.1 105.21, 1.06 97.51, 0 79.5 M0 79.5 C0.27 61.17, 2.01 44.2, 0 26.5 M0 79.5 C-0.35 66.54, -0.68 51.19, 0 26.5 M0 26.5 C1.49 8.96, 7.84 0.25, 26.5 0 M0 26.5 C-1.38 10.82, 10.67 -2.07, 26.5 0" stroke="#1e1e1e" stroke-width="1" fill="none"></path></g><g transform="translate(38.912498474121094 191) rotate(0 47.587501525878906 25)"><text x="47.587501525878906" y="0" font-family="Virgil, Segoe UI Emoji" font-size="20px" fill="#1e1e1e" text-anchor="middle" style="white-space: pre;" direction="ltr" dominant-baseline="text-before-edge">Service</text><text x="47.587501525878906" y="25" font-family="Virgil, Segoe UI Emoji" font-size="20px" fill="#1e1e1e" text-anchor="middle" style="white-space: pre;" direction="ltr" dominant-baseline="text-before-edge">Interface</text></g><g stroke-linecap="round" transform="translate(10 174) rotate(0 76.5 42)"><path d="M21 0 M21 0 C47.11 0.2, 70.38 0.07, 132 0 M21 0 C44.05 1.5, 66.25 0.74, 132 0 M132 0 C144.72 1.34, 153.63 5.16, 153 21 M132 0 C146.24 1.82, 151.02 7.49, 153 21 M153 21 C155.01 37.98, 151.39 52.41, 153 63 M153 21 C153.75 31.91, 153.6 42.99, 153 63 M153 63 C151.14 76.86, 145.02 83.99, 132 84 M153 63 C151.32 78.69, 147.19 82.54, 132 84 M132 84 C99.9 85.11, 66.23 84.88, 21 84 M132 84 C98.1 83.53, 65.48 85.23, 21 84 M21 84 C6.83 83.14, -1.98 75.99, 0 63 M21 84 C7.76 82.23, 0.95 77.43, 0 63 M0 63 C-1.11 49.22, 0.29 33.59, 0 21 M0 63 C0.37 52.72, 0.62 43.57, 0 21 M0 21 C1.71 7.05, 8.48 -1.81, 21 0 M0 21 C-2.19 7.04, 5.43 -0.56, 21 0" stroke="#1e1e1e" stroke-width="1" fill="none"></path></g><g transform="translate(437.8499984741211 191) rotate(0 71.6500015258789 25)"><text x="71.6500015258789" y="0" font-family="Virgil, Segoe UI Emoji" font-size="20px" fill="#1e1e1e" text-anchor="middle" style="white-space: pre;" direction="ltr" dominant-baseline="text-before-edge">Service</text><text x="71.6500015258789" y="25" font-family="Virgil, Segoe UI Emoji" font-size="20px" fill="#1e1e1e" text-anchor="middle" style="white-space: pre;" direction="ltr" dominant-baseline="text-before-edge">Implementation</text></g><g stroke-linecap="round" transform="translate(408 167) rotate(0 101.5 49)"><path d="M24.5 0 M24.5 0 C58.06 2.15, 94.4 1.24, 178.5 0 M24.5 0 C70.75 -0.18, 117.48 1.23, 178.5 0 M178.5 0 C196.19 -0.03, 204.55 9.31, 203 24.5 M178.5 0 C195.95 1.1, 201.57 6.91, 203 24.5 M203 24.5 C201.98 44.79, 201.78 60.92, 203 73.5 M203 24.5 C202.89 42.59, 202.5 59.1, 203 73.5 M203 73.5 C203.93 89.83, 193.2 96.74, 178.5 98 M203 73.5 C202.36 88.03, 195.74 95.92, 178.5 98 M178.5 98 C145.1 98.14, 111.53 97.1, 24.5 98 M178.5 98 C131.58 99.56, 85.43 99.15, 24.5 98 M24.5 98 C6.97 97.62, -0.37 91.37, 0 73.5 M24.5 98 C7.4 98.27, 1.5 91.24, 0 73.5 M0 73.5 C-0.99 58.48, -0.83 46.04, 0 24.5 M0 73.5 C0.17 62.24, 0.29 53.4, 0 24.5 M0 24.5 C0.79 6.94, 7.26 1.62, 24.5 0 M0 24.5 C0.13 9.18, 7.28 -0.92, 24.5 0" stroke="#1e1e1e" stroke-width="1" fill="none"></path></g><g transform="translate(56.16250038146973 25.5) rotate(0 22.337499618530273 12.5)"><text x="22.337499618530273" y="0" font-family="Virgil, Segoe UI Emoji" font-size="20px" fill="#1e1e1e" text-anchor="middle" style="white-space: pre;" direction="ltr" dominant-baseline="text-before-edge">User</text></g><g stroke-linecap="round" transform="translate(29 10) rotate(0 49.5 28)"><path d="M14 0 M14 0 C42.05 1.14, 67.45 -1.72, 85 0 M14 0 C34.64 1.02, 55.64 0.89, 85 0 M85 0 C94.18 1.08, 97.38 5.99, 99 14 M85 0 C96.15 0.91, 97.59 3.63, 99 14 M99 14 C98.24 23.86, 97.63 35.11, 99 42 M99 14 C98.98 19.28, 98.98 27.26, 99 42 M99 42 C99.37 50.68, 92.55 54.8, 85 56 M99 42 C99.36 51.77, 93.27 57.67, 85 56 M85 56 C57.02 54.66, 30.36 55.76, 14 56 M85 56 C60.91 56.24, 36.91 55.74, 14 56 M14 56 C3.44 55.88, -0.06 53.18, 0 42 M14 56 C5.79 54.2, 0.19 49.04, 0 42 M0 42 C1.57 36.44, -1.74 29.03, 0 14 M0 42 C-0.15 30.91, 0.24 20.66, 0 14 M0 14 C-0.9 5.23, 3.96 -1.44, 14 0 M0 14 C1.43 3.51, 4.53 -1.74, 14 0" stroke="#1e1e1e" stroke-width="1" fill="none"></path></g><g mask="url(#mask--4bHsLrlSBggbZ9jxmGwu)" stroke-linecap="round"><g transform="translate(78 76) rotate(0 1.2326667819032764 46.47762096869761)"><path d="M0.29 0.64 C0.83 15.77, 2.8 76.37, 3.49 91.66 M-1.02 -0.06 C-0.7 15.16, 1.45 77.97, 2.27 93.02" stroke="#1e1e1e" stroke-width="1" fill="none"></path></g><g transform="translate(78 76) rotate(0 1.2326667819032764 46.47762096869761)"><path d="M-8.1 64.43 C-5.9 74.77, -1.1 84.41, 2.23 94.32 M-9.11 64.85 C-5.36 74.21, -1.72 85.4, 1.62 92.63" stroke="#1e1e1e" stroke-width="1" fill="none"></path></g><g transform="translate(78 76) rotate(0 1.2326667819032764 46.47762096869761)"><path d="M12.4 63.56 C8.1 74.23, 6.39 84.14, 2.23 94.32 M11.39 63.98 C7.95 73.65, 4.41 85.15, 1.62 92.63" stroke="#1e1e1e" stroke-width="1" fill="none"></path></g></g><mask id="mask--4bHsLrlSBggbZ9jxmGwu"><rect x="0" y="0" fill="#fff" width="182" height="268"></rect><rect x="57.625" y="109.5" fill="#000" width="44.75" height="25" opacity="1"></rect></mask><g transform="translate(57.625 109.5) rotate(0 21.607666781903276 12.977620968697607)"><text x="22.375" y="0" font-family="Virgil, Segoe UI Emoji" font-size="20px" fill="#1e1e1e" text-anchor="middle" style="white-space: pre;" direction="ltr" dominant-baseline="text-before-edge">calls</text></g><g mask="url(#mask-tdlVSG2nAsPWuhdkmQGk8)" stroke-linecap="round"><g transform="translate(395 215.9169610195201) rotate(0 -112.47337218672033 -0.6064501860487894)"><path d="M1.19 -0.66 C-36.37 -0.68, -188.28 -0.95, -226.13 -1.21 M0.35 1.61 C-36.79 1.36, -186.7 -2.41, -224.02 -2.82" stroke="#1e1e1e" stroke-width="1" fill="none"></path></g><g transform="translate(395 215.9169610195201) rotate(0 -112.47337218672033 -0.6064501860487894)"><path d="M-196.73 -14.44 C-200.79 -11.56, -209.11 -7.13, -224.21 -1.49 M-194.74 -12.75 C-201.43 -10.51, -208.33 -7.96, -224.56 -2.18" stroke="#1e1e1e" stroke-width="1" fill="none"></path></g><g transform="translate(395 215.9169610195201) rotate(0 -112.47337218672033 -0.6064501860487894)"><path d="M-197.12 6.08 C-200.91 4.13, -209.14 3.75, -224.21 -1.49 M-195.13 7.77 C-201.87 5.31, -208.68 3.16, -224.56 -2.18" stroke="#1e1e1e" stroke-width="1" fill="none"></path></g></g><mask id="mask-tdlVSG2nAsPWuhdkmQGk8"><rect x="0" y="0" fill="#fff" width="720" height="318.08276590142657"></rect><rect x="233.4124984741211" y="202.33405857856684" fill="#000" width="98.17500305175781" height="25" opacity="1"></rect></mask><g transform="translate(233.4124984741211 202.3340585785669) rotate(0 49.11412933915858 12.976452254904416)"><text x="49.087501525878906" y="0" font-family="Virgil, Segoe UI Emoji" font-size="20px" fill="#1e1e1e" text-anchor="middle" style="white-space: pre;" direction="ltr" dominant-baseline="text-before-edge">implements</text></g><g mask="url(#mask-RT-z2OPRCEirrbDHGj4NE)" stroke-linecap="round"><g transform="translate(517 280) rotate(0 0.12579139596209643 35.71915378948205)"><path d="M-0.77 -0.45 C-0.81 11.91, -0.02 61.01, -0.04 73.18 M1.02 -1.74 C0.9 10.41, -0.05 59.63, -0.49 71.67" stroke="#1e1e1e" stroke-width="1" fill="none"></path></g><g transform="translate(517 280) rotate(0 0.12579139596209643 35.71915378948205)"><path d="M-10.76 44.81 C-5.29 52.39, -3.35 59.69, -0.21 70.01 M-9.16 44.16 C-6.89 52.66, -2.94 64.14, 0.22 71.36" stroke="#1e1e1e" stroke-width="1" fill="none"></path></g><g transform="translate(517 280) rotate(0 0.12579139596209643 35.71915378948205)"><path d="M9.75 45.35 C8.78 52.63, 4.26 59.76, -0.21 70.01 M11.36 44.7 C6.12 53.16, 2.56 64.44, 0.22 71.36" stroke="#1e1e1e" stroke-width="1" fill="none"></path></g></g><mask id="mask-RT-z2OPRCEirrbDHGj4NE"><rect x="0" y="0" fill="#fff" width="618" height="452"></rect><rect x="494.125" y="303.5" fill="#000" width="44.75" height="25" opacity="1"></rect></mask><g transform="translate(494.125 303.5) rotate(0 23.000791395962096 12.21915378948205)"><text x="22.375" y="0" font-family="Virgil, Segoe UI Emoji" font-size="20px" fill="#1e1e1e" text-anchor="middle" style="white-space: pre;" direction="ltr" dominant-baseline="text-before-edge">calls</text></g></svg>